# xmcd CD Database Entry
#
# Track frame offsets:
# 183
# 24823
# 41293
# 67873
# 81238
# 99370
# 121090
# 155915
# 179490
# 198953
#
# Disc length: 3047 seconds
#
# Revision: 2
# Processed by: cddbd v1.4PL0 Copyright (c) Steve Scherf et al.
# Submitted via: tcd 2.0b
#
DISCID=720be50a
DTITLE=Art Pepper - Meet the rhythm section
DYEAR=1900
DGENRE=
TTITLE0=you'd be so nice to come home to
TTITLE1=red pepper blues
TTITLE2=imagination
TTITLE3=waltz me blues
TTITLE4=straight life
TTITLE5=jazz me blues
TTITLE6=tin tin deo
TTITLE7=star eyes
TTITLE8=birks works
TTITLE9=the man I love
EXTD=year 1957
EXTT0=
EXTT1=
EXTT2=
EXTT3=
EXTT4=
EXTT5=
EXTT6=
EXTT7=
EXTT8=
EXTT9=
PLAYORDER=
